<svg id="Layer_1" data-name="Layer 1" xmlns="http://www.w3.org/2000/svg" xmlns:xlink="http://www.w3.org/1999/xlink" viewBox="0 0 500 234"><defs><style>.cls-1{fill:#17262f;}.cls-2{fill:url(#linear-gradient);}.cls-3{fill:url(#linear-gradient-2);}.cls-4{fill:url(#linear-gradient-3);}.cls-5{fill:url(#linear-gradient-4);}.cls-6{fill:url(#linear-gradient-5);}.cls-7{fill:url(#linear-gradient-6);}.cls-8{fill:#3ebea3;}</style><linearGradient id="linear-gradient" x1="-14.11" y1="108.67" x2="69.07" y2="156.69" gradientUnits="userSpaceOnUse"><stop offset="0" stop-color="#cce0f4"/><stop offset="0.22" stop-color="#70a8ea"/><stop offset="0.38" stop-color="#3181e4"/><stop offset="0.45" stop-color="#1972e1"/><stop offset="0.87" stop-color="#0067d5"/><stop offset="0.99" stop-color="#0d72c4"/></linearGradient><linearGradient id="linear-gradient-2" x1="49.64" y1="105.25" x2="131.44" y2="152.48" xlink:href="#linear-gradient"/><linearGradient id="linear-gradient-3" x1="126.09" y1="105.36" x2="216.82" y2="157.74" xlink:href="#linear-gradient"/><linearGradient id="linear-gradient-4" x1="204.33" y1="105.25" x2="286.13" y2="152.48" xlink:href="#linear-gradient"/><linearGradient id="linear-gradient-5" x1="275.51" y1="96.75" x2="365.65" y2="148.79" xlink:href="#linear-gradient"/><linearGradient id="linear-gradient-6" x1="347.6" y1="97.52" x2="430.41" y2="145.34" xlink:href="#linear-gradient"/></defs><title>Logo_rec</title><path class="cls-1" d="M6,4.13h6.35l5.87,39.32L25.56,4.34H31l7.43,39.31L44.13,4.13h6.22L41.57,58.85H36L28.39,18.32l-7.7,40.53H14.88ZM55.48,41.69V21c0-10.8,3.92-17.29,15-17.29S85.41,10.21,85.41,21V41.76c0,10.74-3.92,17.7-14.93,17.7S55.48,52.57,55.48,41.69ZM77.7,43.38v-24c0-6.08-1.14-9.79-7.22-9.79s-7.3,3.71-7.3,9.79v24c0,6.08,1.15,10.07,7.3,10.07S77.7,49.46,77.7,43.38ZM92.9,4.13h5.2l15.54,36.35V4.13H120V58.85h-4.86L99.39,21.49V58.85H92.9Zm35.67,0h7.63V29.94L148.77,4.13h7.09L145.05,28.25l12.56,30.6h-7.43L139.71,33.18l-3.51,6.35V58.85h-7.63Zm42.08,0H178L189.7,58.85h-7.23L180,45.07H168.83l-2.64,13.78H159ZM179,39.6l-4.59-24.66L169.84,39.6Zm14.66,3.92,6.75-1.83c.41,5.88,1.89,11.76,7.77,11.76,3.92,0,6-2.23,6-6.42,0-4.93-2.5-7.5-5.94-10.54L199,28.38c-3.65-3.17-5.27-6.62-5.27-12.09,0-8,4.93-12.63,12.84-12.63,8.71,0,12.9,4.53,13.78,14.12l-6.49,1.76c-.4-5.41-1.62-10-7.29-10-3.79,0-6,2-6,6,0,3.31,1,5.2,3.58,7.43l9.26,8.11c4.12,3.64,7.83,8.51,7.83,15.33,0,8.11-5.47,13-13.1,13C198.62,59.46,194.16,53,193.62,43.52Zm32.55-1.83V21c0-10.8,3.92-17.29,15-17.29S256.1,10.21,256.1,21V41.76c0,10.74-3.92,17.7-14.93,17.7S226.17,52.57,226.17,41.69Zm22.23,1.69v-24c0-6.08-1.15-9.79-7.23-9.79s-7.29,3.71-7.29,9.79v24c0,6.08,1.14,10.07,7.29,10.07S248.4,49.46,248.4,43.38ZM263.6,4.13h21.14V9.61H271.23V27.84H281.7v5.41H271.23v25.6H263.6ZM296,9.81h-9.25V4.13h25.87V9.81h-9v49H296Z"/><path class="cls-2" d="M35.36,73.16v89.11H53v22.3H6.39V73.16Z"/><path class="cls-3" d="M124.05,138.4q0,16.78-.79,23.77a26.62,26.62,0,0,1-16.2,21.64,40.88,40.88,0,0,1-16.52,3.1A41.9,41.9,0,0,1,74.48,184a26.76,26.76,0,0,1-16.62-21.5Q57,155.59,57,138.4V119.34q0-16.8.79-23.78A26.66,26.66,0,0,1,74,73.92a41,41,0,0,1,16.51-3.1,42,42,0,0,1,16.07,2.93,26.76,26.76,0,0,1,16.62,21.5q.83,6.89.82,24.09Zm-29-36.61q0-7.79-.87-9.94a3.41,3.41,0,0,0-3.54-2.17,3.94,3.94,0,0,0-3.47,1.75Q86,93.18,86,101.79v52q0,9.7.79,12c.53,1.52,1.76,2.27,3.68,2.27a3.56,3.56,0,0,0,3.79-2.61q.83-2.61.83-12.46Z"/><path class="cls-4" d="M201.33,114.17h-29V104.06q0-9.57-.83-12c-.55-1.61-1.85-2.41-3.92-2.41A3.64,3.64,0,0,0,164,91.74q-1,2.07-1,10.6v53.47q0,7.5,1,9.87a3.74,3.74,0,0,0,3.85,2.37,4.25,4.25,0,0,0,4.3-2.68c.76-1.79,1.13-5.27,1.13-10.46V141.7h-5.84V124.77h33.92v59.8H183.12l-2.67-8a20.29,20.29,0,0,1-7.48,7.74,21,21,0,0,1-10.63,2.58,27.57,27.57,0,0,1-13.67-3.55,26.06,26.06,0,0,1-9.68-8.77,27.81,27.81,0,0,1-4.13-11,131.55,131.55,0,0,1-.83-17.23v-33.1q0-16,1.72-23.19t9.88-13.25q8.15-6,21.09-6,12.72,0,21.12,5.23t10.94,12.42q2.55,7.2,2.55,20.89Z"/><path class="cls-5" d="M278.74,138.4q0,16.78-.79,23.77a26.62,26.62,0,0,1-16.2,21.64,40.88,40.88,0,0,1-16.52,3.1A41.9,41.9,0,0,1,229.17,184a26.76,26.76,0,0,1-16.62-21.5q-.83-6.89-.83-24.08V119.34q0-16.8.79-23.78a26.66,26.66,0,0,1,16.21-21.64,41,41,0,0,1,16.51-3.1,42,42,0,0,1,16.07,2.93,26.76,26.76,0,0,1,16.62,21.5q.82,6.89.82,24.09Zm-29-36.61c0-5.19-.28-8.5-.86-9.94a3.41,3.41,0,0,0-3.54-2.17,4,4,0,0,0-3.48,1.75q-1.2,1.75-1.2,10.36v52q0,9.7.79,12c.53,1.52,1.76,2.27,3.68,2.27a3.57,3.57,0,0,0,3.79-2.61q.83-2.61.82-12.46Z"/><path class="cls-6" d="M355.4,73.16v74.46q0,12.66-.83,17.78a24.19,24.19,0,0,1-4.88,10.53,25.45,25.45,0,0,1-10.7,8.19,40.27,40.27,0,0,1-15.66,2.79,43.87,43.87,0,0,1-17.61-3.31q-7.65-3.3-11.43-8.6a23.86,23.86,0,0,1-4.47-11.18q-.69-5.88-.69-24.74V73.16h29V156.7c0,4.86.27,8,.79,9.32a3.1,3.1,0,0,0,3.2,2,3.35,3.35,0,0,0,3.55-2.23c.52-1.49.79-5,.79-10.56V73.16Z"/><path class="cls-7" d="M425,73.16v22.3H407.76v89.11h-29V95.46H361.66V73.16Z"/><polygon class="cls-8" points="494.03 124.27 387.97 18.21 387.97 60.17 5.97 60.17 5.97 65.17 387.97 65.17 387.97 65.16 432.97 65.16 432.97 103.46 415.76 103.46 415.76 192.57 387.97 192.57 387.97 192.56 5.97 192.56 5.97 197.56 387.97 197.56 387.97 230.34 494.03 124.27"/></svg>